<?xml version="1.0" encoding="UTF-8"?>
<svg id="Layer_1" data-name="Layer 1" xmlns="http://www.w3.org/2000/svg" viewBox="0 0 16 16">
  <defs>
    <style>
      .cls-1 {
        fill: #1467fa;
      }

      .cls-1, .cls-2 {
        stroke-width: 0px;
      }

      .cls-2 {
        fill: #fff;
      }
    </style>
  </defs>
  <rect class="cls-1" width="16" height="16" rx="2.28" ry="2.28"/>
  <g>
    <path class="cls-2" d="M8.82,6.97V2.72s-.03-.07-.07-.07h-1.49s-.07.03-.07.07v4.25c-.52.29-.88.85-.88,1.5s.38,1.25.94,1.53c.05.03.12-.01.12-.07v-1.46h1.27v1.46c0,.06.06.1.12.07.56-.28.94-.86.94-1.53s-.35-1.2-.88-1.5h0Z"/>
    <path class="cls-2" d="M10.77,4.03l-.82,1.23s-.02.09.02.11c.9.63,1.48,1.69,1.47,2.88-.02,1.91-1.55,3.44-3.45,3.44s-3.45-1.55-3.45-3.47c0-1.18.58-2.22,1.47-2.84.04-.03.05-.08.02-.11l-.82-1.23s-.08-.05-.11-.02c-1.35.94-2.22,2.52-2.19,4.3.05,2.79,2.32,5.03,5.08,5.03s5.07-2.29,5.07-5.12c0-1.75-.87-3.29-2.19-4.21-.04-.03-.09-.02-.11.02h0Z"/>
  </g>
</svg>